<?xml version="1.0" ?>
<!-- Uploaded to: SVG Repo, www.svgrepo.com, Generator: SVG Repo Mixer Tools -->
<svg fill="#000000" width="800px" height="800px" viewBox="0 0 64 64" id="Layer_1_1_" version="1.1" xml:space="preserve" xmlns="http://www.w3.org/2000/svg" xmlns:xlink="http://www.w3.org/1999/xlink">
<g>
<path d="M42,30c-1.103,0-2-0.897-2-2h-2c0,2.206,1.794,4,4,4s4-1.794,4-4h-2C44,29.103,43.103,30,42,30z"/>
<path d="M58.088,40.729l-11.165-3.489c-0.067-0.434-0.177-0.852-0.348-1.242c3.304-1.507,5.63-4.533,6.253-8.082   C55.19,27.518,57,25.473,57,23v-7c0-8.271-6.729-15-15-15c-3.163,0-6.095,0.99-8.517,2.667C30.278,1.927,26.671,1,23,1   C10.869,1,1,10.869,1,23c0,11.613,9.047,21.148,20.463,21.94C21.172,45.715,21,46.544,21,47.411V54c0,2.757,2.243,5,5,5h1v4h36   V47.411C63,44.333,61.026,41.647,58.088,40.729z M61,47.411V54h-4v-7h-2v14H44.816C44.928,60.686,45,60.352,45,60V49h2v-6h-1.523   l1.165-2.914c0.1-0.25,0.167-0.508,0.225-0.767l10.623,3.32C59.59,43.294,61,45.212,61,47.411z M27,47v2h-4v-1.589   c0-2.199,1.41-4.117,3.509-4.772l10.623-3.32c0.058,0.26,0.125,0.518,0.225,0.768L38.523,43H37v6h2v2.142   C38.678,51.058,38.347,51,38,51h-9v-4H27z M45,38v0.229c0,0.383-0.072,0.758-0.215,1.114L43.323,43h-2.645l-1.462-3.656   C39.072,38.988,39,38.613,39,38.229V38c0-1.654,1.346-3,3-3S45,36.346,45,38z M39,47v-2h6v2H39z M41,60v-2.382   c0.615-0.703,1-1.612,1-2.618s-0.385-1.914-1-2.618V49h2v11c0,0.551-0.449,1-1,1S41,60.551,41,60z M45.381,34.34   C44.489,33.516,43.307,33,42,33c-1.307,0-2.489,0.516-3.381,1.34C35.235,32.972,33,29.695,33,26v-0.184   C33.314,25.928,33.648,26,34,26h4c1.302,0,2.402-0.839,2.816-2h2.369c0.414,1.161,1.514,2,2.816,2h4c0.352,0,0.686-0.072,1-0.184   V26C51,29.696,48.764,32.972,45.381,34.34z M29,23c0-1.302,0.839-2.402,2-2.816V23v2.816C29.839,25.402,29,24.302,29,23z M51,23   c0,0.551-0.449,1-1,1h-4c-0.551,0-1-0.449-1-1v-1h6V23z M51,20h-8v2h-2v-2h-8v-2h18V20z M39,22v1c0,0.551-0.449,1-1,1h-4   c-0.551,0-1-0.449-1-1v-1H39z M53,25.816V23v-2.816c1.161,0.414,2,1.514,2,2.816S54.161,25.402,53,25.816z M55,16v3.026   c-0.584-0.442-1.257-0.773-2-0.924V16H31v2.101c-0.743,0.152-1.416,0.482-2,0.924V16c0-7.168,5.832-13,13-13S55,8.832,55,16z    M31.796,5.037C28.854,7.777,27,11.672,27,16v1.911c-1.146-0.29-2-1.322-2-2.557c0-2.45-1.361-4.653-3.553-5.749   C19.938,8.851,19,7.333,19,5.646c0-0.832,0.233-1.631,0.654-2.343C20.745,3.118,21.858,3,23,3C26.06,3,29.072,3.703,31.796,5.037z    M3,23c0-6.388,3.022-12.072,7.698-15.736l4.028,5.37C15.547,13.729,16,15.087,16,16.457c0,1.946-0.872,3.76-2.391,4.976   l-0.671,0.537C11.706,22.954,11,24.423,11,26c0,2.225,1.418,4.193,3.529,4.897l2.976,0.992C18.998,32.387,20,33.778,20,35.351   C20,37.363,18.363,39,16.351,39h-5.3C6.175,35.349,3,29.546,3,23z M14.34,41h2.011C19.466,41,22,38.466,22,35.351   c0-2.436-1.552-4.589-3.862-5.359L15.162,29C13.869,28.569,13,27.364,13,26c0-0.966,0.433-1.866,1.187-2.469l0.671-0.537   C16.855,21.397,18,19.014,18,16.457c0-1.8-0.595-3.583-1.674-5.023l-3.992-5.323c1.519-0.963,3.169-1.735,4.928-2.263   C17.097,4.43,17,5.031,17,5.646c0,2.45,1.361,4.653,3.553,5.749C22.062,12.149,23,13.667,23,15.354c0,2.341,1.746,4.263,4,4.581V23   c0,2.461,1.791,4.5,4.171,4.913c0.622,3.551,2.949,6.578,6.254,8.086c-0.171,0.39-0.281,0.808-0.348,1.242l-11.165,3.489   c-1.344,0.42-2.471,1.222-3.315,2.25C19.642,42.92,16.85,42.213,14.34,41z M23,54v-3h4v2h11c1.103,0,2,0.897,2,2s-0.897,2-2,2H26   C24.346,57,23,55.654,23,54z M29,59h9c0.347,0,0.678-0.058,1-0.142V60c0,0.352,0.072,0.686,0.184,1H29V59z M57,61v-5h4v5H57z"/>
<rect height="2" width="2" x="8" y="15"/>
<rect height="2" width="2" x="12" y="34"/>
</g>
</svg>